<svg width="30" height="30" viewBox="0 0 30 30" fill="none" xmlns="http://www.w3.org/2000/svg">
<path d="M15 30C23.2843 30 30 23.2843 30 15C30 6.71573 23.2843 0 15 0C6.71573 0 0 6.71573 0 15C0 23.2843 6.71573 30 15 30Z" fill="#242155"/>
<path d="M23.3871 14.8388L15.1613 6.45166C15 6.29037 14.6774 6.29037 14.5161 6.45166L11.4516 9.67746V8.06456C11.4516 7.90327 11.2903 7.58069 10.9677 7.58069H9.67741C9.51612 7.58069 9.19353 7.74198 9.19353 8.06456V12.2581L6.4516 15C6.4516 15 6.4516 15.1613 6.4516 15.3226C6.4516 15.4839 6.61289 15.6452 6.77418 15.6452H8.87095V23.0646C8.87095 23.2258 9.03224 23.5484 9.35483 23.5484H13.0645C13.2258 23.5484 13.5484 23.3871 13.5484 23.0646V20.3226C13.5484 19.5162 14.1935 18.871 15 18.871C15.8064 18.871 16.4516 19.5162 16.4516 20.3226V23.0646C16.4516 23.2258 16.6129 23.5484 16.9355 23.5484H20.6451C20.8064 23.5484 21.129 23.3871 21.129 23.0646V15.4839H23.2258C23.3871 15.4839 23.5484 15.3226 23.5484 15.1613C23.5484 15.1613 23.5484 15 23.3871 14.8388Z" fill="white"/>
</svg>
