<svg width="30" height="30" viewBox="0 0 30 30" fill="none" xmlns="http://www.w3.org/2000/svg">
<path d="M17.2447 27.3457L15.7583 28.8356C15.1289 29.4665 14.1111 29.4665 13.4885 28.8356L0.472046 15.7953C-0.157349 15.1644 -0.157349 14.1443 0.472046 13.5202L13.4885 0.473155C14.1178 -0.157718 15.1356 -0.157718 15.7583 0.473155L17.2447 1.96309C17.8808 2.60067 17.8674 3.64094 17.2179 4.2651L9.14965 11.9698H28.393C29.2836 11.9698 30 12.6879 30 13.5806V15.7282C30 16.6208 29.2836 17.3389 28.393 17.3389H9.14965L17.2179 25.0437C17.8741 25.6678 17.8875 26.7081 17.2447 27.3457Z" fill="white"/>
</svg>
