<svg width="30" height="27" viewBox="0 0 30 27" fill="none" xmlns="http://www.w3.org/2000/svg">
<path d="M20.9688 4.35745L25.6667 9.0872C25.8646 9.28646 25.8646 9.61156 25.6667 9.81082L14.2917 21.2629L9.45833 21.803C8.8125 21.8764 8.26562 21.3258 8.33854 20.6756L8.875 15.8095L20.25 4.35745C20.4479 4.15819 20.7708 4.15819 20.9688 4.35745ZM29.4062 3.15666L26.8646 0.597773C26.0729 -0.199258 24.7865 -0.199258 23.9896 0.597773L22.1458 2.45402C21.9479 2.65327 21.9479 2.97838 22.1458 3.17764L26.8438 7.90738C27.0417 8.10664 27.3646 8.10664 27.5625 7.90738L29.4062 6.05114C30.1979 5.24887 30.1979 3.95369 29.4062 3.15666ZM20 18.1482V23.4862H3.33333V6.70659H15.3021C15.4687 6.70659 15.625 6.63843 15.7448 6.52307L17.8281 4.42562C18.224 4.0271 17.9427 3.35068 17.3854 3.35068H2.5C1.11979 3.35068 0 4.47805 0 5.86761V24.3252C0 25.7147 1.11979 26.8421 2.5 26.8421H20.8333C22.2135 26.8421 23.3333 25.7147 23.3333 24.3252V16.0507C23.3333 15.4897 22.6615 15.2118 22.2656 15.605L20.1823 17.7025C20.0677 17.8231 20 17.9804 20 18.1482Z" fill="white"/>
</svg>
