<svg width="30" height="30" viewBox="0 0 30 30" fill="none" xmlns="http://www.w3.org/2000/svg">
<path d="M15 30C23.2843 30 30 23.2843 30 15C30 6.71573 23.2843 0 15 0C6.71573 0 0 6.71573 0 15C0 23.2843 6.71573 30 15 30Z" fill="#211C57"/>
<path d="M23.5484 21.2903H6.45158C6.129 21.2903 5.96771 20.9677 5.96771 20.8065V9.35484C5.96771 9.03226 6.29029 8.87097 6.45158 8.87097H23.3871C23.7096 8.87097 23.8709 9.19355 23.8709 9.35484V20.8065C24.0322 21.129 23.7096 21.2903 23.5484 21.2903ZM7.09674 20.1613H22.9032V9.83871H7.09674V20.1613Z" fill="white"/>
<path d="M15 16.7742C14.3548 16.7742 13.8709 16.6129 13.3871 16.1291L6.129 9.67746C5.96771 9.51617 5.96771 9.35488 5.96771 9.0323C6.129 8.87101 6.29029 8.70972 6.45158 8.70972H23.3871C23.5484 8.70972 23.8709 8.87101 23.8709 9.0323C24.0322 9.19359 23.8709 9.51617 23.7096 9.67746L16.4516 16.1291C16.129 16.6129 15.6451 16.7742 15 16.7742ZM8.06449 9.83875L14.1935 15.3226C14.6774 15.8065 15.4838 15.8065 15.9677 15.3226L22.0967 9.83875H8.06449Z" fill="white"/>
<path d="M23.5483 21.2902H6.45156C6.29027 21.2902 5.96769 21.1289 5.96769 20.9676C5.8064 20.8064 5.96769 20.4838 6.12898 20.3225L12.4193 14.6773C12.5806 14.516 13.0645 14.516 13.2258 14.6773C13.387 14.8386 13.387 15.3225 13.2258 15.4838L8.06446 20.1612H22.0967L16.9354 15.4838C16.7741 15.3225 16.6128 14.9999 16.9354 14.6773C17.0967 14.516 17.4193 14.3548 17.7419 14.6773L24.0322 20.3225C24.1935 20.4838 24.1935 20.6451 24.1935 20.9676C23.8709 21.1289 23.7096 21.2902 23.5483 21.2902Z" fill="white"/>
</svg>
