<svg width="47" height="65" viewBox="0 0 47 65" fill="none" xmlns="http://www.w3.org/2000/svg">
<path d="M26.212 13.8937L13.9406 26.1417C12.205 27.874 12.205 30.7067 13.9406 32.4389L17.9017 36.3926C17.963 36.4537 18.0038 36.4944 18.0651 36.5556L11.7558 42.8528C11.6946 42.8121 11.6333 42.7509 11.5925 42.6898L1.30167 32.4593C-0.433889 30.7271 -0.433889 27.8943 1.30167 26.1621L26.212 1.29919C27.9475 -0.433063 30.7857 -0.433063 32.5212 1.29919L42.812 11.5704C42.8733 11.6316 42.9141 11.6723 42.9754 11.7335L36.6661 18.0307C36.6049 17.9899 36.5436 17.9288 36.5028 17.8677L32.5416 13.9141C30.7857 12.1614 27.9679 12.1614 26.212 13.8937Z" fill="#14CE05"/>
<path d="M32.3783 38.8379L20.1069 51.086C18.3713 52.8182 15.5332 52.8182 13.7976 51.086L9.83649 47.1323C9.77523 47.0712 9.7344 47.0305 9.67314 46.9693L3.36389 53.2666C3.40473 53.3277 3.46598 53.3888 3.52724 53.4296L13.8181 63.7008C15.5536 65.4331 18.3917 65.4331 20.1273 63.7008L45.0376 38.8379C46.7732 37.1057 46.7732 34.2729 45.0376 32.5407L34.7468 22.2695C34.6855 22.2083 34.6447 22.1676 34.5834 22.1064L28.2742 28.4037C28.315 28.4648 28.3763 28.5259 28.4375 28.5667L32.3987 32.5203C34.1138 34.2729 34.1138 37.1057 32.3783 38.8379Z" fill="#14CE05"/>
</svg>
