<svg width="25" height="35" viewBox="0 0 25 35" fill="none" xmlns="http://www.w3.org/2000/svg">
<g clip-path="url(#clip0)">
<path d="M14.1472 7.49134L7.52535 14.0833C6.58881 15.0156 6.58881 16.5402 7.52535 17.4725L9.66286 19.6004C9.69591 19.6333 9.71795 19.6552 9.751 19.6881L6.34642 23.0774C6.31336 23.0554 6.28031 23.0225 6.25827 22.9896L0.705164 17.4835C-0.231372 16.5512 -0.231372 15.0266 0.705164 14.0943L14.1472 0.712904C15.0837 -0.219406 16.6153 -0.219406 17.5518 0.712904L23.1049 6.24095C23.138 6.27386 23.16 6.29579 23.193 6.3287L19.7885 9.71792C19.7554 9.69598 19.7224 9.66308 19.7003 9.63017L17.5628 7.50231C16.6153 6.55903 15.0948 6.55903 14.1472 7.49134Z" fill="white"/>
<path d="M17.4747 20.9166L10.8528 27.5086C9.91626 28.4409 8.38475 28.4409 7.44821 27.5086L5.31071 25.3808C5.27765 25.3478 5.25562 25.3259 5.22256 25.293L1.81798 28.6822C1.84001 28.7151 1.87307 28.748 1.90612 28.77L7.45923 34.298C8.39577 35.2303 9.92728 35.2303 10.8638 34.298L24.3059 20.9166C25.2424 19.9843 25.2424 18.4597 24.3059 17.5274L18.7528 11.9994C18.7197 11.9665 18.6977 11.9445 18.6646 11.9116L15.26 15.3008C15.2821 15.3337 15.3151 15.3667 15.3482 15.3886L17.4857 17.5164C18.4112 18.4597 18.4112 19.9843 17.4747 20.9166Z" fill="white"/>
</g>
<defs>
<clipPath id="clip0">
<rect width="25" height="35" fill="white"/>
</clipPath>
</defs>
</svg>
