<svg width="88" height="123" viewBox="0 0 88 123" fill="none" xmlns="http://www.w3.org/2000/svg">
<g opacity="0.4" clip-path="url(#clip0)">
<path d="M49.7982 26.3268L26.4892 49.4929C23.1926 52.7693 23.1926 58.1271 26.4892 61.4035L34.0132 68.8815C34.1296 68.9971 34.2072 69.0742 34.3235 69.1898L22.3394 81.1005C22.223 81.0234 22.1067 80.9078 22.0291 80.7921L2.48217 61.4421C-0.814432 58.1657 -0.814432 52.8078 2.48217 49.5314L49.7982 2.5054C53.0948 -0.771005 58.4857 -0.771005 61.7823 2.5054L81.3293 21.9325C81.4456 22.0482 81.5232 22.1253 81.6395 22.2409L69.6554 34.1516C69.539 34.0745 69.4227 33.9589 69.3451 33.8432L61.8211 26.3653C58.4857 23.0504 53.1336 23.0504 49.7982 26.3268Z" fill="white"/>
<path d="M61.5108 73.507L38.2018 96.6731C34.9052 99.9495 29.5143 99.9495 26.2177 96.6731L18.6937 89.1952C18.5773 89.0796 18.4998 89.0025 18.3834 88.8869L6.39929 100.798C6.47686 100.913 6.59321 101.029 6.70956 101.106L26.2565 120.533C29.5531 123.809 34.944 123.809 38.2406 120.533L85.5566 73.507C88.8532 70.2306 88.8532 64.8728 85.5566 61.5963L66.0097 42.1692C65.8933 42.0536 65.8158 41.9765 65.6994 41.8608L53.7153 53.7715C53.7929 53.8872 53.9092 54.0028 54.0256 54.0799L61.5496 61.5578C64.8074 64.8728 64.8074 70.2306 61.5108 73.507Z" fill="white"/>
</g>
<defs>
<clipPath id="clip0">
<rect width="88" height="123" fill="white"/>
</clipPath>
</defs>
</svg>
