<svg width="30" height="30" viewBox="0 0 30 30" fill="none" xmlns="http://www.w3.org/2000/svg">
<path d="M15 30C23.2843 30 30 23.2843 30 15C30 6.71573 23.2843 0 15 0C6.71573 0 0 6.71573 0 15C0 23.2843 6.71573 30 15 30Z" fill="#211C57"/>
<path d="M7.09675 8.87103C7.09675 8.38716 7.25804 7.90329 7.58062 7.58071C7.9032 7.25813 8.38707 6.93555 9.03223 6.93555H11.6129C12.5806 6.93555 13.3871 7.58071 13.5484 8.54845C13.5484 9.03232 13.7096 9.67748 13.8709 10.1614C14.0322 10.8065 13.8709 11.613 13.3871 12.0968L12.0967 13.2259C13.2258 15.1614 14.8387 16.7743 16.7742 17.9033L17.7419 16.9355C18.2258 16.4517 18.8709 16.2904 19.6774 16.4517C20.1613 16.613 20.8064 16.7743 21.2903 16.7743C22.258 16.9355 22.9032 17.742 22.9032 18.7097V21.2904C22.9032 21.7743 22.7419 22.2581 22.258 22.742C21.9355 23.0646 21.2903 23.2259 20.8064 23.2259C19.0322 23.0646 17.258 22.5807 15.6451 21.7743C14.0322 20.9678 12.5806 20.0001 11.4516 18.7097C10.1613 17.4194 9.19352 15.9678 8.38707 14.5162C7.58062 12.9033 7.09675 11.1291 6.93546 9.3549C7.09675 9.03232 7.09675 9.03232 7.09675 8.87103ZM12.4193 10.8065V10.6452C12.258 10.0001 12.0967 9.51619 12.0967 8.87103C12.0967 8.54845 11.7742 8.38716 11.4516 8.38716H8.87094C8.70965 8.38716 8.54836 8.38716 8.38707 8.54845C8.38707 8.54845 8.22578 8.70974 8.22578 9.03232C8.87094 15.8065 14.1935 21.1291 20.9677 21.7743C21.129 21.7743 21.2903 21.7743 21.4516 21.613C21.6129 21.4517 21.6129 21.2904 21.6129 21.1291V18.5484C21.6129 18.2259 21.4516 17.9033 21.129 17.9033C20.4838 17.9033 19.8387 17.742 19.1935 17.5807C19.0322 17.5807 18.7096 17.5807 18.5484 17.742L16.9355 19.3549L16.6129 19.1936C14.0322 17.9033 12.0967 15.8065 10.8064 13.3872L10.6451 12.9033L12.258 11.2904C12.4193 11.1291 12.4193 10.9678 12.4193 10.8065Z" fill="white"/>
</svg>
